<mxfile host="65bd71144e">
    <diagram id="k5ZMjk80liEitpJvTf0_" name="Page-1">
        <mxGraphModel dx="1278" dy="774" grid="1" gridSize="10" guides="1" tooltips="1" connect="1" arrows="1" fold="1" page="1" pageScale="1" pageWidth="827" pageHeight="1169" math="0" shadow="0">
            <root>
                <mxCell id="0"/>
                <mxCell id="1" parent="0"/>
                <mxCell id="5" style="edgeStyle=none;html=1;entryX=0.5;entryY=0;entryDx=0;entryDy=0;" edge="1" parent="1" source="2" target="4">
                    <mxGeometry relative="1" as="geometry">
                        <mxPoint x="414" y="140" as="targetPoint"/>
                    </mxGeometry>
                </mxCell>
                <mxCell id="2" value="Start" style="strokeWidth=2;html=1;shape=mxgraph.flowchart.terminator;whiteSpace=wrap;" vertex="1" parent="1">
                    <mxGeometry x="364" y="70" width="100" height="60" as="geometry"/>
                </mxCell>
                <mxCell id="10" value="" style="edgeStyle=none;html=1;" edge="1" parent="1" source="3" target="9">
                    <mxGeometry relative="1" as="geometry"/>
                </mxCell>
                <mxCell id="14" value="" style="edgeStyle=none;html=1;" edge="1" parent="1" source="3" target="11">
                    <mxGeometry relative="1" as="geometry"/>
                </mxCell>
                <mxCell id="3" value="if&lt;br&gt;(numberOfDisks == 1)" style="strokeWidth=2;html=1;shape=mxgraph.flowchart.decision;whiteSpace=wrap;" vertex="1" parent="1">
                    <mxGeometry x="326" y="230" width="176" height="180" as="geometry"/>
                </mxCell>
                <mxCell id="6" value="" style="edgeStyle=none;html=1;" edge="1" parent="1" source="4" target="3">
                    <mxGeometry relative="1" as="geometry"/>
                </mxCell>
                <mxCell id="4" value="Get numberOfDisk" style="shape=parallelogram;html=1;strokeWidth=2;perimeter=parallelogramPerimeter;whiteSpace=wrap;rounded=1;arcSize=12;size=0.23;" vertex="1" parent="1">
                    <mxGeometry x="344" y="150" width="140" height="60" as="geometry"/>
                </mxCell>
                <mxCell id="7" value="No" style="text;html=1;align=center;verticalAlign=middle;resizable=0;points=[];autosize=1;strokeColor=none;fillColor=none;" vertex="1" parent="1">
                    <mxGeometry x="490" y="285" width="40" height="30" as="geometry"/>
                </mxCell>
                <mxCell id="8" value="Yes" style="text;html=1;align=center;verticalAlign=middle;resizable=0;points=[];autosize=1;strokeColor=none;fillColor=none;" vertex="1" parent="1">
                    <mxGeometry x="340" y="385" width="40" height="30" as="geometry"/>
                </mxCell>
                <mxCell id="19" style="edgeStyle=orthogonalEdgeStyle;html=1;entryX=0.5;entryY=0;entryDx=0;entryDy=0;entryPerimeter=0;rounded=0;" edge="1" parent="1" source="9" target="18">
                    <mxGeometry relative="1" as="geometry">
                        <Array as="points">
                            <mxPoint x="414" y="680"/>
                            <mxPoint x="534" y="680"/>
                        </Array>
                    </mxGeometry>
                </mxCell>
                <mxCell id="9" value="print&lt;br&gt;(`Move disk &lt;br&gt;${numberOfDisks}&lt;br&gt;&amp;nbsp;from peg ${startPeg} to &lt;br&gt;${endPeg}`)" style="shape=parallelogram;html=1;strokeWidth=2;perimeter=parallelogramPerimeter;whiteSpace=wrap;rounded=1;arcSize=12;size=0.23;" vertex="1" parent="1">
                    <mxGeometry x="298" y="440" width="232" height="110" as="geometry"/>
                </mxCell>
                <mxCell id="15" value="" style="edgeStyle=none;html=1;" edge="1" parent="1" source="11" target="13">
                    <mxGeometry relative="1" as="geometry"/>
                </mxCell>
                <mxCell id="11" value="&lt;div&gt;&amp;nbsp; &amp;nbsp; hanoi(numberOfDisks - 1, startPeg, 6 - startPeg - endPeg)&lt;/div&gt;&lt;div&gt;&lt;br&gt;&lt;/div&gt;" style="rounded=1;whiteSpace=wrap;html=1;absoluteArcSize=1;arcSize=14;strokeWidth=2;align=center;" vertex="1" parent="1">
                    <mxGeometry x="590" y="285" width="170" height="75" as="geometry"/>
                </mxCell>
                <mxCell id="17" value="" style="edgeStyle=none;html=1;" edge="1" parent="1" source="13" target="16">
                    <mxGeometry relative="1" as="geometry"/>
                </mxCell>
                <mxCell id="13" value="print&lt;br&gt;(`Move disk &lt;br&gt;${numberOfDisks}&lt;br&gt;&amp;nbsp;from peg ${startPeg} to &lt;br&gt;${endPeg}`)" style="shape=parallelogram;html=1;strokeWidth=2;perimeter=parallelogramPerimeter;whiteSpace=wrap;rounded=1;arcSize=12;size=0.23;" vertex="1" parent="1">
                    <mxGeometry x="560" y="450" width="232" height="110" as="geometry"/>
                </mxCell>
                <mxCell id="20" style="edgeStyle=orthogonalEdgeStyle;html=1;entryX=0.5;entryY=0;entryDx=0;entryDy=0;entryPerimeter=0;rounded=0;" edge="1" parent="1" source="16" target="18">
                    <mxGeometry relative="1" as="geometry">
                        <Array as="points">
                            <mxPoint x="676" y="680"/>
                            <mxPoint x="534" y="680"/>
                        </Array>
                    </mxGeometry>
                </mxCell>
                <mxCell id="16" value="&lt;div&gt;&amp;nbsp; &amp;nbsp; hanoi(numberOfDisks - 1, startPeg, 6 - startPeg - endPeg)&lt;/div&gt;&lt;div&gt;&lt;br&gt;&lt;/div&gt;" style="rounded=1;whiteSpace=wrap;html=1;absoluteArcSize=1;arcSize=14;strokeWidth=2;align=center;" vertex="1" parent="1">
                    <mxGeometry x="591" y="585" width="170" height="75" as="geometry"/>
                </mxCell>
                <mxCell id="18" value="Stop" style="strokeWidth=2;html=1;shape=mxgraph.flowchart.terminator;whiteSpace=wrap;" vertex="1" parent="1">
                    <mxGeometry x="484" y="710" width="100" height="60" as="geometry"/>
                </mxCell>
            </root>
        </mxGraphModel>
    </diagram>
</mxfile>